REM DIRINDEX 1\2,1\3,1\4,1\5\6,1\5\7,1\8
REM DIRNAME cjc115,folder01,folder02,folder03,folder04,folder05,folder06,folder07
TITLE ""
FILE "094 【094】Unit5 (1069 council_1080 urge).mp3" MP3
  TRACK 01 AUDIO
    TITLE "0:"
    INDEX 01 00:00:00
  TRACK 02 AUDIO
    TITLE "2:cjc115_3648"
    INDEX 01 00:00:07
  TRACK 03 AUDIO
    TITLE "0:"
    INDEX 01 00:01:21
  TRACK 04 AUDIO
    TITLE "3:cjc115_3649"
    INDEX 01 00:01:30
  TRACK 05 AUDIO
    TITLE "0:"
    INDEX 01 00:03:51
  TRACK 06 AUDIO
    TITLE "4:cjc115_3650"
    INDEX 01 00:03:63
  TRACK 07 AUDIO
    TITLE "0:"
    INDEX 01 00:06:55
  TRACK 08 AUDIO
    TITLE "2:cjc115_3651"
    INDEX 01 00:07:64
  TRACK 09 AUDIO
    TITLE "0:"
    INDEX 01 00:09:10
  TRACK 10 AUDIO
    TITLE "3:cjc115_3652"
    INDEX 01 00:09:18
  TRACK 11 AUDIO
    TITLE "0:"
    INDEX 01 00:10:74
  TRACK 12 AUDIO
    TITLE "4:cjc115_3653"
    INDEX 01 00:11:03
  TRACK 13 AUDIO
    TITLE "0:"
    INDEX 01 00:15:38
  TRACK 14 AUDIO
    TITLE "2:cjc115_3654"
    INDEX 01 00:16:49
  TRACK 15 AUDIO
    TITLE "0:"
    INDEX 01 00:17:70
  TRACK 16 AUDIO
    TITLE "3:cjc115_3655"
    INDEX 01 00:18:03
  TRACK 17 AUDIO
    TITLE "0:"
    INDEX 01 00:19:16
  TRACK 18 AUDIO
    TITLE "4:cjc115_3656"
    INDEX 01 00:19:20
  TRACK 19 AUDIO
    TITLE "0:"
    INDEX 01 00:22:74
  TRACK 20 AUDIO
    TITLE "2:cjc115_3657"
    INDEX 01 00:24:12
  TRACK 21 AUDIO
    TITLE "0:"
    INDEX 01 00:25:45
  TRACK 22 AUDIO
    TITLE "3:cjc115_3658"
    INDEX 01 00:25:54
  TRACK 23 AUDIO
    TITLE "0:"
    INDEX 01 00:28:51
  TRACK 24 AUDIO
    TITLE "4:cjc115_3659"
    INDEX 01 00:28:60
  TRACK 25 AUDIO
    TITLE "0:"
    INDEX 01 00:33:34
  TRACK 26 AUDIO
    TITLE "2:cjc115_3660"
    INDEX 01 00:34:43
  TRACK 27 AUDIO
    TITLE "0:"
    INDEX 01 00:35:63
  TRACK 28 AUDIO
    TITLE "3:cjc115_3661"
    INDEX 01 00:35:70
  TRACK 29 AUDIO
    TITLE "0:"
    INDEX 01 00:37:61
  TRACK 30 AUDIO
    TITLE "4:cjc115_3662"
    INDEX 01 00:37:71
  TRACK 31 AUDIO
    TITLE "0:"
    INDEX 01 00:41:61
  TRACK 32 AUDIO
    TITLE "2:cjc115_3663"
    INDEX 01 00:42:70
  TRACK 33 AUDIO
    TITLE "0:"
    INDEX 01 00:44:05
  TRACK 34 AUDIO
    TITLE "3:cjc115_3664"
    INDEX 01 00:44:12
  TRACK 35 AUDIO
    TITLE "0:"
    INDEX 01 00:46:07
  TRACK 36 AUDIO
    TITLE "4:cjc115_3665"
    INDEX 01 00:46:09
  TRACK 37 AUDIO
    TITLE "0:"
    INDEX 01 00:51:05
  TRACK 38 AUDIO
    TITLE "2:cjc115_3666"
    INDEX 01 00:52:16
  TRACK 39 AUDIO
    TITLE "0:"
    INDEX 01 00:53:25
  TRACK 40 AUDIO
    TITLE "3:cjc115_3667"
    INDEX 01 00:53:37
  TRACK 41 AUDIO
    TITLE "0:"
    INDEX 01 00:54:40
  TRACK 42 AUDIO
    TITLE "4:cjc115_3668"
    INDEX 01 00:54:44
  TRACK 43 AUDIO
    TITLE "0:"
    INDEX 01 00:59:41
  TRACK 44 AUDIO
    TITLE "2:cjc115_3669"
    INDEX 01 01:00:51
  TRACK 45 AUDIO
    TITLE "0:"
    INDEX 01 01:01:66
  TRACK 46 AUDIO
    TITLE "3:cjc115_3670"
    INDEX 01 01:01:72
  TRACK 47 AUDIO
    TITLE "0:"
    INDEX 01 01:03:31
  TRACK 48 AUDIO
    TITLE "4:cjc115_3671"
    INDEX 01 01:03:35
  TRACK 49 AUDIO
    TITLE "0:"
    INDEX 01 01:06:53
  TRACK 50 AUDIO
    TITLE "2:cjc115_3672"
    INDEX 01 01:07:63
  TRACK 51 AUDIO
    TITLE "0:"
    INDEX 01 01:09:03
  TRACK 52 AUDIO
    TITLE "3:cjc115_3673"
    INDEX 01 01:09:12
  TRACK 53 AUDIO
    TITLE "0:"
    INDEX 01 01:11:19
  TRACK 54 AUDIO
    TITLE "4:cjc115_3674"
    INDEX 01 01:11:25
  TRACK 55 AUDIO
    TITLE "0:"
    INDEX 01 01:14:68
  TRACK 56 AUDIO
    TITLE "2:cjc115_3675"
    INDEX 01 01:16:03
  TRACK 57 AUDIO
    TITLE "0:"
    INDEX 01 01:17:26
  TRACK 58 AUDIO
    TITLE "3:cjc115_3676"
    INDEX 01 01:17:41
  TRACK 59 AUDIO
    TITLE "0:"
    INDEX 01 01:19:05
  TRACK 60 AUDIO
    TITLE "4:cjc115_3677"
    INDEX 01 01:19:07
  TRACK 61 AUDIO
    TITLE "0:"
    INDEX 01 01:22:27
  TRACK 62 AUDIO
    TITLE "2:cjc115_3678"
    INDEX 01 01:23:48
  TRACK 63 AUDIO
    TITLE "0:"
    INDEX 01 01:25:04
  TRACK 64 AUDIO
    TITLE "3:cjc115_3679"
    INDEX 01 01:25:09
  TRACK 65 AUDIO
    TITLE "0:"
    INDEX 01 01:27:57
  TRACK 66 AUDIO
    TITLE "4:cjc115_3680"
    INDEX 01 01:27:61
  TRACK 67 AUDIO
    TITLE "0:"
    INDEX 01 01:31:53
  TRACK 68 AUDIO
    TITLE "2:cjc115_3681"
    INDEX 01 01:32:59
  TRACK 69 AUDIO
    TITLE "0:"
    INDEX 01 01:33:66
  TRACK 70 AUDIO
    TITLE "3:cjc115_3682"
    INDEX 01 01:33:72
  TRACK 71 AUDIO
    TITLE "0:"
    INDEX 01 01:36:00
  TRACK 72 AUDIO
    TITLE "4:cjc115_3683"
    INDEX 01 01:36:05
  TRACK 73 AUDIO
    TITLE "0:"
    INDEX 01 01:39:49
